<svg xmlns="http://www.w3.org/2000/svg" width="115.015" height="69" viewBox="0 0 115.015 69">
  <g id="bison_logo" transform="translate(19301.031 20941.092)">
    <path id="Path_1" data-name="Path 1" d="M64.911,191.967c-1.977,0-2.721-.57-2.721-2.271v-.281c0-1.7.745-2.271,2.721-2.271h.328c1.789,0,2.526.5,2.688,1.755h-1.8c-.108-.382-.356-.483-1.039-.483h-.041c-.965,0-1.064.349-1.064,1.046v.195c0,.683.1,1.037,1.064,1.037h.041c.683,0,.932-.1,1.039-.482h1.8c-.162,1.259-.9,1.755-2.688,1.755Z" transform="translate(-19348.295 -21064.059)"/>
    <path id="Path_2" data-name="Path 2" d="M77.157,191.968c-2.01,0-2.795-.57-2.795-2.271v-.275c0-1.688.785-2.277,2.795-2.277h.375c2.011,0,2.8.589,2.8,2.277v.275c0,1.7-.784,2.271-2.8,2.271Zm.242-1.273c1,0,1.132-.355,1.132-1.038v-.194c0-.7-.127-1.046-1.132-1.046h-.107c-1.006,0-1.133.342-1.133,1.046v.194c0,.683.127,1.038,1.133,1.038Z" transform="translate(-19353.428 -21064.059)"/>
    <path id="Path_3" data-name="Path 3" d="M93.238,191.949H90.6l-1.729-2.975h-.054v2.975H87.147v-4.69h2.641l1.729,2.975h.06v-2.975h1.661Z" transform="translate(-19358.818 -21064.107)"/>
    <path id="Path_4" data-name="Path 4" d="M102.751,191.967c-1.515,0-2.533-.341-2.68-1.48h1.883c.08.275.342.328,1.006.328.737,0,.9-.1.9-.328v-.054c0-.187-.115-.254-.483-.275l-1.22-.039c-1.474-.054-1.977-.4-1.977-1.361v-.047c0-1.113.725-1.568,2.567-1.568h.195c1.513,0,2.532.429,2.667,1.547h-1.883c-.087-.287-.308-.4-.925-.4-.649,0-.83.095-.83.342v.026c0,.208.114.269.483.29l1.205.039c1.482.054,1.984.39,1.984,1.327v.047c0,1.186-.784,1.6-2.614,1.6Z" transform="translate(-19364.27 -21064.059)"/>
    <path id="Path_5" data-name="Path 5" d="M114.923,191.949H113.16v-3.316h-1.587v-1.374h4.959v1.374h-1.608Z" transform="translate(-19369.121 -21064.107)"/>
    <path id="Path_6" data-name="Path 6" d="M124.207,191.949h-1.763v-4.69h3.324c1.595,0,2.1.322,2.1,1.259v.127c0,.7-.248,1.033-.945,1.12v.061c.671.094.945.227.945,1.118v1.006H126.11v-.978c0-.348-.094-.462-.744-.462h-1.159Zm0-3.5v.885h1.454c.3,0,.449-.1.449-.4V188.9c0-.355-.141-.456-.711-.456Z" transform="translate(-19373.705 -21064.107)"/>
    <path id="Path_7" data-name="Path 7" d="M136.672,192.015c-2,0-2.487-.456-2.487-2.164v-2.594h1.789v2.54c0,.824.161.93.844.93h.087c.677,0,.844-.113.844-.93v-2.54h1.8v2.594c0,1.708-.489,2.164-2.492,2.164Z" transform="translate(-19378.656 -21064.107)"/>
    <path id="Path_8" data-name="Path 8" d="M148.452,191.967c-1.977,0-2.721-.57-2.721-2.271v-.281c0-1.7.744-2.271,2.721-2.271h.328c1.789,0,2.526.5,2.688,1.755h-1.8c-.108-.382-.356-.483-1.039-.483h-.04c-.965,0-1.065.349-1.065,1.046v.195c0,.683.1,1.037,1.065,1.037h.04c.683,0,.932-.1,1.039-.482h1.8c-.161,1.259-.9,1.755-2.688,1.755Z" transform="translate(-19383.525 -21064.059)"/>
    <path id="Path_9" data-name="Path 9" d="M161.081,191.949h-1.763v-3.316H157.73v-1.374h4.959v1.374h-1.608Z" transform="translate(-19388.586 -21064.107)"/>
    <rect id="Rectangle_2" data-name="Rectangle 2" width="1.763" height="4.69" transform="translate(-19224.57 -20876.848)"/>
    <path id="Path_10" data-name="Path 10" d="M176.913,191.968c-2.01,0-2.795-.57-2.795-2.271v-.275c0-1.688.785-2.277,2.795-2.277h.375c2.011,0,2.8.589,2.8,2.277v.275c0,1.7-.784,2.271-2.8,2.271Zm.242-1.273c1,0,1.132-.355,1.132-1.038v-.194c0-.7-.128-1.046-1.132-1.046h-.107c-1.006,0-1.133.342-1.133,1.046v.194c0,.683.127,1.038,1.133,1.038Z" transform="translate(-19395.498 -21064.059)"/>
    <path id="Path_11" data-name="Path 11" d="M193,191.949h-2.64l-1.729-2.975h-.054v2.975H186.9v-4.69h2.641l1.729,2.975h.06v-2.975H193Z" transform="translate(-19400.891 -21064.107)"/>
    <path id="Path_12" data-name="Path 12" d="M202.507,191.967c-1.514,0-2.533-.341-2.68-1.48h1.883c.082.275.342.328,1.006.328.737,0,.9-.1.9-.328v-.054c0-.187-.114-.254-.482-.275l-1.22-.039c-1.474-.054-1.977-.4-1.977-1.361v-.047c0-1.113.725-1.568,2.567-1.568h.195c1.513,0,2.532.429,2.667,1.547h-1.883c-.087-.287-.308-.4-.925-.4-.649,0-.83.095-.83.342v.026c0,.208.115.269.483.29l1.205.039c1.482.054,1.984.39,1.984,1.327v.047c0,1.186-.784,1.6-2.614,1.6Z" transform="translate(-19406.34 -21064.059)"/>
    <path id="Path_13" data-name="Path 13" d="M137.124,117.209c.245.252.673.673.673.673a6.2,6.2,0,0,1-1.269-.634.645.645,0,0,1-.069-.069c-.106-.168.183-.352.214-.557s-.206-.444-.443-.688a.7.7,0,0,0-.6-.161l-2.788.642a4.952,4.952,0,0,0,1.558,1.673c.375.222,1.879.932,2.559,1.207s2.071-1.1,2.071-1.1a29.906,29.906,0,0,0-.641-3.6,4.2,4.2,0,0,1-1.262,2.61" transform="translate(-19378.088 -21033.463)"/>
    <path id="Path_14" data-name="Path 14" d="M117.975,119.964c-.542-.315-1.253-.542-1.224-1.231s-.843-1.195-1.238-2.28c-.459-1.239.422-1.774,1.763-2.218a12.315,12.315,0,0,0-5.521-1.774c-.3,1.4-.343,2.673.289,3.266,1.334,1.444,1.649,1.811,2.089,4.3h.5a6.035,6.035,0,0,1,.389,1.1h3.674a1.961,1.961,0,0,0-.718-1.166" transform="translate(-19369.107 -21032.563)"/>
    <path id="Path_15" data-name="Path 15" d="M142.969,89.446a36.83,36.83,0,0,0-3.991-4.838,2.018,2.018,0,0,1,1.457-.957,5.035,5.035,0,0,0-3.628-1.024c-3.874-3.43-9.062-6.085-13.967-6.466-3.715,1.972-11.485,5.921-18.842,7.963-2.851.792-4.78.992-7.664,3.579-1.51,1.1-2.909,2.051-4.489.652-1.622-1.434-1.373-4.325.549-5.029,1.081-.395,1.712.815,4.389,1.133s4.167-2.447,4.167-2.447a4.42,4.42,0,0,1-4.317.884,5.527,5.527,0,0,1-1.073-.463c.155.034.335.077.541.128,1.605.455,2.186.159,2.275.121a6.191,6.191,0,0,0-6.2-.36,4.908,4.908,0,0,0-.779.556c-1.837,1.6-2.489,5.664.575,7.346a8.063,8.063,0,0,0,3.2.86c-.02,4.439-1.112,6.634-3.414,8.957.733,3.545-.313,4.225-.634,5.348a2.226,2.226,0,0,0,.886.2l-.336,1.551,4.155-.067a3.523,3.523,0,0,0-1.032-1.911c-.566-2.231-.13-3.124,1.306-4.638a12.762,12.762,0,0,0,6.294-4.421c3.87,0,6.79,2.089,9.581,2.425,5.671.683,8.067-.756,8.112-.773-.347-1.384-.928-3.314-.928-3.314a18.353,18.353,0,0,1,2.574,9.467,4.769,4.769,0,0,0-.069.963,2.433,2.433,0,0,1,1.65,2.272h3.339c.13-1.826-2.392-2.417-1.826-3.953l3.989-7.9a8.068,8.068,0,0,1-.434,2.893,3.057,3.057,0,0,0,.886,3.259c-.171-1.176.159-1.748.94-1.858a1.818,1.818,0,0,0,.1,2.166c.215-1.087.715-1.295,1.242-1.392l.616.209.788.275a5.212,5.212,0,0,0,2.391.145A49.3,49.3,0,0,0,143,89.722a.285.285,0,0,0-.027-.276m-16.663-8.036c6.288,5.119-1.024,11.7-2.223,16.2a18.6,18.6,0,0,0-6.677-7.434c-.046.046-4.9,8.151-13.279,3.545.4-1.757.657-3-.26-4.019-.84,4.371-4.706,7.732-9.031,9.153,3.961-3.92,2.918-6.379,3.012-8.133,2.36-4.877,11.8-6.141,15.09-7.322s5.642-2.665,8.364-3.455c3.721-1.077,6.884-.841,9.352,1.429a11.167,11.167,0,0,0-4.347.038M137.18,93.336c-1.186.493-2.9-.582-1.543-2.976a3.667,3.667,0,0,0,1.906,2.258Zm.139-6.984a1.515,1.515,0,0,0,.344.4,1.035,1.035,0,0,1-1.231,1.657,2.413,2.413,0,0,1-.981-1.462,2.836,2.836,0,0,1,3.475-3.49,2.187,2.187,0,0,0-1.607,2.893" transform="translate(-19359.959 -21017.252)"/>
    <g id="Group_2275" data-name="Group 2275" transform="translate(-19301.031 -20901.963)">
      <path id="Path_16" data-name="Path 16" d="M63.466,148.345l-.078.375a4.665,4.665,0,0,1-2.9,3.341,3.074,3.074,0,0,1,1.556,3.448l-.078.428a6.125,6.125,0,0,1-6.014,4.65H36.376l3.448-16.759H59.318c3.033,0,4.692,1.845,4.148,4.517m-7.258,6.121H42.7l-.311,1.577H55.845a1.17,1.17,0,0,0,1.218-.748l.025-.214c.077-.375-.363-.615-.881-.615m1.218-6.121H43.972l-.337,1.6H57.141a1.055,1.055,0,0,0,1.089-.855l.026-.161c.077-.32-.156-.588-.83-.588" transform="translate(-36.377 -143.828)" fill="#d12f13"/>
      <path id="Path_17" data-name="Path 17" d="M86.193,143.828h5.055L87.8,160.586H82.744Z" transform="translate(-55.931 -143.828)" fill="#d12f13"/>
      <path id="Path_18" data-name="Path 18" d="M97.143,156.043H115.6c.389,0,.622-.214.648-.428l.026-.133c.078-.294-.155-.481-.493-.508l-13.9-1.015c-2.773-.214-4.588-1.363-3.94-4.436l.208-1.069c.622-2.967,2.956-4.624,6.274-4.624h18.1l-.934,4.517H103.832a.7.7,0,0,0-.7.455l-.026.16c-.025.107-.025.455.441.508l14.336,1.043c2.566.187,4.173,1.523,3.526,4.571l-.182.989c-.544,2.619-3.266,4.517-6.248,4.517H96.21Z" transform="translate(-61.609 -143.828)" fill="#d12f13"/>
      <path id="Path_19" data-name="Path 19" d="M142.2,155.161l1.193-5.8c.726-3.474,3.422-5.533,7.207-5.533h12.521c3.733,0,5.625,2.059,4.9,5.533l-1.192,5.8c-.7,3.421-3.422,5.426-7.207,5.426H147.173c-3.733,0-5.677-2.058-4.978-5.426m17.525.882c1.374,0,1.97-.455,2.255-1.737l.856-4.17c.259-1.256-.208-1.791-1.685-1.791H150.7a2.1,2.1,0,0,0-2.411,1.791l-.855,4.17c-.233,1.123.312,1.737,1.5,1.737Z" transform="translate(-80.944 -143.828)" fill="#d12f13"/>
      <path id="Path_20" data-name="Path 20" d="M214.456,143.828l-3.448,16.759h-4.174l-13.817-10.531-2.152,10.531h-4.952l3.448-16.759h4.2l13.766,10.531,2.177-10.531Z" transform="translate(-99.441 -143.828)" fill="#d12f13"/>
    </g>
  </g>
</svg>
