<svg xmlns="http://www.w3.org/2000/svg" width="135.715" height="81.418" viewBox="0 0 135.715 81.418">
  <g id="bison_logo_white" transform="translate(-902.491 -6791.999)">
    <path id="Path_1" data-name="Path 1" d="M65.4,192.835c-2.332,0-3.211-.672-3.211-2.68v-.332c0-2.009.879-2.68,3.211-2.68h.387c2.111,0,2.98.585,3.172,2.071H66.841c-.127-.45-.42-.57-1.226-.57h-.048c-1.139,0-1.255.411-1.255,1.234v.23c0,.806.117,1.224,1.255,1.224h.048c.806,0,1.1-.119,1.226-.568H68.96c-.191,1.486-1.06,2.071-3.172,2.071Z" transform="translate(857.915 6680.581)" fill="#f8f6f4"/>
    <path id="Path_2" data-name="Path 2" d="M77.66,192.836c-2.372,0-3.3-.672-3.3-2.68v-.325c0-1.992.926-2.687,3.3-2.687H78.1c2.373,0,3.3.7,3.3,2.687v.325c0,2.008-.925,2.68-3.3,2.68Zm.285-1.5c1.185,0,1.335-.419,1.335-1.225v-.229c0-.83-.15-1.234-1.335-1.234h-.126c-1.187,0-1.337.4-1.337,1.234v.229c0,.806.15,1.225,1.337,1.225Z" transform="translate(854.049 6680.581)" fill="#f8f6f4"/>
    <path id="Path_3" data-name="Path 3" d="M94.334,192.793H91.219l-2.04-3.511h-.064v3.511H87.147v-5.534h3.116l2.04,3.51h.071v-3.51h1.96Z" transform="translate(849.989 6680.544)" fill="#f8f6f4"/>
    <path id="Path_4" data-name="Path 4" d="M103.234,192.835c-1.787,0-2.989-.4-3.163-1.747h2.222c.095.324.4.387,1.187.387.869,0,1.06-.119,1.06-.387v-.064c0-.221-.135-.3-.57-.325l-1.439-.046c-1.739-.064-2.333-.474-2.333-1.606v-.055c0-1.313.855-1.85,3.029-1.85h.23c1.786,0,2.988.506,3.147,1.825h-2.222c-.1-.339-.364-.467-1.092-.467-.766,0-.98.112-.98.4v.031c0,.246.135.317.57.342l1.422.046c1.748.064,2.341.46,2.341,1.566v.055c0,1.4-.925,1.889-3.084,1.889Z" transform="translate(845.883 6680.581)" fill="#f8f6f4"/>
    <path id="Path_5" data-name="Path 5" d="M115.526,192.793h-2.08V188.88h-1.873v-1.621h5.851v1.621h-1.9Z" transform="translate(842.228 6680.544)" fill="#f8f6f4"/>
    <path id="Path_6" data-name="Path 6" d="M124.524,192.793h-2.08v-5.534h3.922c1.882,0,2.484.379,2.484,1.486v.149c0,.823-.293,1.219-1.116,1.322v.072c.791.111,1.116.267,1.116,1.319v1.187h-2.08v-1.155c0-.41-.111-.545-.878-.545h-1.368Zm0-4.136V189.7h1.716c.356,0,.53-.119.53-.467v-.04c0-.418-.166-.538-.839-.538Z" transform="translate(838.776 6680.544)" fill="#f8f6f4"/>
    <path id="Path_7" data-name="Path 7" d="M137.119,192.872c-2.364,0-2.934-.538-2.934-2.553v-3.06H136.3v3c0,.972.19,1.1,1,1.1h.1c.8,0,1-.134,1-1.1v-3h2.119v3.06c0,2.016-.577,2.553-2.94,2.553Z" transform="translate(835.047 6680.544)" fill="#f8f6f4"/>
    <path id="Path_8" data-name="Path 8" d="M148.941,192.835c-2.332,0-3.21-.672-3.21-2.68v-.332c0-2.009.878-2.68,3.21-2.68h.387c2.111,0,2.981.585,3.172,2.071h-2.119c-.127-.45-.42-.57-1.226-.57h-.048c-1.139,0-1.256.411-1.256,1.234v.23c0,.806.117,1.224,1.256,1.224h.048c.806,0,1.1-.119,1.226-.568H152.5c-.19,1.486-1.06,2.071-3.172,2.071Z" transform="translate(831.379 6680.581)" fill="#f8f6f4"/>
    <path id="Path_9" data-name="Path 9" d="M161.684,192.793H159.6V188.88H157.73v-1.621h5.851v1.621h-1.9Z" transform="translate(827.567 6680.544)" fill="#f8f6f4"/>
    <rect id="Rectangle_2" data-name="Rectangle 2" width="2.08" height="5.534" transform="translate(992.714 6867.804)" fill="#f8f6f4"/>
    <path id="Path_10" data-name="Path 10" d="M177.416,192.836c-2.372,0-3.3-.672-3.3-2.68v-.325c0-1.992.926-2.687,3.3-2.687h.442c2.373,0,3.3.7,3.3,2.687v.325c0,2.008-.925,2.68-3.3,2.68Zm.285-1.5c1.185,0,1.336-.419,1.336-1.225v-.229c0-.83-.151-1.234-1.336-1.234h-.126c-1.187,0-1.337.4-1.337,1.234v.229c0,.806.15,1.225,1.337,1.225Z" transform="translate(822.361 6680.581)" fill="#f8f6f4"/>
    <path id="Path_11" data-name="Path 11" d="M194.092,192.793h-3.115l-2.04-3.511h-.064v3.511H186.9v-5.534h3.116l2.04,3.51h.071v-3.51h1.96Z" transform="translate(818.299 6680.544)" fill="#f8f6f4"/>
    <path id="Path_12" data-name="Path 12" d="M202.99,192.835c-1.787,0-2.989-.4-3.163-1.747h2.222c.1.324.4.387,1.187.387.869,0,1.059-.119,1.059-.387v-.064c0-.221-.134-.3-.569-.325l-1.439-.046c-1.739-.064-2.333-.474-2.333-1.606v-.055c0-1.313.855-1.85,3.029-1.85h.23c1.786,0,2.988.506,3.147,1.825h-2.222c-.1-.339-.364-.467-1.092-.467-.766,0-.98.112-.98.4v.031c0,.246.135.317.57.342l1.422.046c1.748.064,2.341.46,2.341,1.566v.055c0,1.4-.925,1.889-3.084,1.889Z" transform="translate(814.194 6680.581)" fill="#f8f6f4"/>
    <path id="Path_13" data-name="Path 13" d="M137.9,117.679c.289.3.794.794.794.794a7.312,7.312,0,0,1-1.5-.749.76.76,0,0,1-.081-.081c-.126-.2.216-.415.252-.658s-.243-.523-.523-.811a.82.82,0,0,0-.712-.19l-3.29.757a5.843,5.843,0,0,0,1.839,1.974c.442.262,2.218,1.1,3.02,1.425s2.444-1.3,2.444-1.3a35.288,35.288,0,0,0-.756-4.243,4.952,4.952,0,0,1-1.49,3.08" transform="translate(835.475 6703.627)" fill="#f8f6f4"/>
    <path id="Path_14" data-name="Path 14" d="M119.132,121.315c-.64-.372-1.479-.64-1.445-1.453s-.994-1.41-1.461-2.69c-.542-1.462.5-2.093,2.08-2.617a14.532,14.532,0,0,0-6.515-2.093c-.357,1.649-.4,3.154.341,3.854,1.574,1.7,1.946,2.136,2.465,5.077h.587a7.12,7.12,0,0,1,.459,1.3h4.335a2.314,2.314,0,0,0-.847-1.376" transform="translate(842.239 6704.305)" fill="#f8f6f4"/>
    <path id="Path_15" data-name="Path 15" d="M152.529,91.836a43.458,43.458,0,0,0-4.709-5.709A2.382,2.382,0,0,1,149.539,85a5.941,5.941,0,0,0-4.281-1.208c-4.571-4.048-10.693-7.18-16.481-7.629-4.384,2.327-13.552,6.987-22.233,9.4-3.364.934-5.64,1.171-9.043,4.223-1.782,1.3-3.433,2.42-5.3.77-1.914-1.692-1.62-5.1.648-5.934,1.276-.466,2.02.962,5.179,1.337s4.917-2.887,4.917-2.887a5.215,5.215,0,0,1-5.094,1.043,6.522,6.522,0,0,1-1.266-.547c.183.04.4.091.638.151,1.894.537,2.58.188,2.684.143a7.3,7.3,0,0,0-7.313-.424,5.791,5.791,0,0,0-.92.656c-2.167,1.884-2.937,6.684.678,8.668a9.515,9.515,0,0,0,3.78,1.015c-.024,5.238-1.312,7.829-4.028,10.569.865,4.183-.37,4.985-.749,6.31a2.627,2.627,0,0,0,1.046.235l-.4,1.83,4.9-.078a4.157,4.157,0,0,0-1.217-2.254c-.667-2.632-.154-3.687,1.541-5.472a15.059,15.059,0,0,0,7.427-5.217c4.567,0,8.012,2.465,11.305,2.862,6.692.806,9.519-.892,9.572-.912-.409-1.634-1.094-3.911-1.094-3.911,1.965,3.754,3.154,7.065,3.038,11.171a5.628,5.628,0,0,0-.081,1.136,2.87,2.87,0,0,1,1.947,2.681h3.94c.153-2.154-2.822-2.852-2.155-4.664l4.707-9.319a9.521,9.521,0,0,1-.512,3.413A3.607,3.607,0,0,0,136.376,106c-.2-1.388.188-2.063,1.109-2.192a2.145,2.145,0,0,0,.113,2.555c.254-1.282.843-1.528,1.465-1.642l.727.246.93.325a6.15,6.15,0,0,0,2.821.171,58.171,58.171,0,0,0,9.02-13.3.336.336,0,0,0-.032-.326m-19.662-9.482c7.419,6.04-1.208,13.8-2.624,19.112a21.941,21.941,0,0,0-7.879-8.772c-.055.054-5.781,9.618-15.669,4.183.469-2.074.776-3.543-.306-4.742-.991,5.157-5.553,9.124-10.656,10.8,4.674-4.626,3.443-7.528,3.554-9.6,2.785-5.755,13.929-7.246,17.806-8.64s6.657-3.144,9.869-4.077c4.39-1.271,8.123-.992,11.035,1.686a13.176,13.176,0,0,0-5.13.045M145.7,96.427c-1.4.581-3.418-.687-1.82-3.512a4.327,4.327,0,0,0,2.249,2.664Zm.164-8.241a1.788,1.788,0,0,0,.406.476,1.222,1.222,0,0,1-1.452,1.956,2.847,2.847,0,0,1-1.158-1.726,3.346,3.346,0,0,1,4.1-4.119c-1.3.348-2.643,1.851-1.9,3.413" transform="translate(849.13 6715.838)" fill="#f8f6f4"/>
    <path id="Path_16" data-name="Path 16" d="M68.342,149.158l-.092.442a5.505,5.505,0,0,1-3.425,3.942,3.627,3.627,0,0,1,1.836,4.069l-.092.5a7.227,7.227,0,0,1-7.1,5.487h-23.1l4.068-19.775h23c3.579,0,5.537,2.177,4.894,5.33m-8.565,7.223H43.84l-.367,1.861H59.349a1.381,1.381,0,0,0,1.438-.882l.03-.252c.091-.442-.429-.726-1.04-.726m1.438-7.223H45.339l-.4,1.893H60.878a1.245,1.245,0,0,0,1.285-1.009l.031-.19c.091-.378-.184-.694-.979-.694" transform="translate(866.115 6694.34)" fill="#f8f6f4"/>
    <path id="Path_17" data-name="Path 17" d="M86.813,143.828h5.964L88.709,163.6H82.744Z" transform="translate(851.386 6694.341)" fill="#f8f6f4"/>
    <path id="Path_18" data-name="Path 18" d="M97.311,158.241h21.78c.459,0,.734-.252.764-.5l.031-.157c.092-.347-.183-.568-.581-.6l-16.4-1.2c-3.273-.252-5.414-1.608-4.649-5.235l.245-1.262c.734-3.5,3.487-5.457,7.4-5.457h21.352l-1.1,5.33H105.2a.829.829,0,0,0-.826.537l-.031.188c-.03.126-.03.536.52.6l16.917,1.23c3.028.22,4.924,1.8,4.16,5.393l-.214,1.167c-.642,3.09-3.854,5.33-7.372,5.33H96.21Z" transform="translate(847.11 6694.34)" fill="#f8f6f4"/>
    <path id="Path_19" data-name="Path 19" d="M142.221,157.2l1.408-6.844c.857-4.1,4.038-6.529,8.5-6.529h14.775c4.4,0,6.637,2.429,5.781,6.529l-1.407,6.844c-.826,4.037-4.038,6.4-8.5,6.4H148.094c-4.4,0-6.7-2.428-5.874-6.4m20.679,1.041c1.621,0,2.324-.536,2.66-2.05l1.011-4.92c.306-1.482-.246-2.113-1.988-2.113H152.255c-1.683,0-2.538.663-2.845,2.113l-1.009,4.92c-.275,1.325.368,2.05,1.774,2.05Z" transform="translate(832.546 6694.34)" fill="#f8f6f4"/>
    <path id="Path_20" data-name="Path 20" d="M219.593,143.828,215.525,163.6H210.6l-16.3-12.427L191.757,163.6h-5.843l4.069-19.775h4.955l16.243,12.427,2.569-12.427Z" transform="translate(818.613 6694.341)" fill="#f8f6f4"/>
  </g>
</svg>
