<svg width="10" height="12" viewBox="0 0 10 12" fill="none" xmlns="http://www.w3.org/2000/svg">
<path d="M8.37082 1.56874C6.70617 -0.291897 3.84814 -0.450435 1.9875 1.21421C0.125985 2.87886 -0.0325528 5.73689 1.63209 7.59753L4.26626 11.1873C4.42915 11.3563 4.65302 11.453 4.88734 11.4547H4.89954V11.4564C5.14431 11.4538 5.37689 11.3519 5.54414 11.1725L8.23667 7.74126C9.89783 6.03916 9.95619 3.3414 8.37082 1.56874ZM7.72186 4.61754C7.71576 6.11843 6.4945 7.33098 4.99361 7.32488C3.49273 7.31878 2.28018 6.09752 2.28628 4.59664C2.29238 3.09576 3.51364 1.8832 5.01452 1.8893C6.51192 1.89453 7.72273 3.10969 7.72186 4.60709V4.61754Z" fill="#F8F6F4"/>
</svg>
